<svg width="368" height="744" viewBox="0 0 368 744" fill="none" xmlns="http://www.w3.org/2000/svg">
<path d="M273.481 1L245.112 110.99L226.613 179.91L238.748 234.969L263.611 181.386L266.092 103.674L280.87 149.108L273.481 206.349L243.494 256.595L261.13 336.874L264.906 357.152L279.63 304.595L305.518 203.397L310.425 119.781L295.648 9.7915L328.924 100.722L332.646 188.702L284.537 336.874L285.023 414.329L291.98 355.933L319.055 256.21L378.273 110.99L393.051 34.69L396.718 113.942L351.145 235.675L343.217 261.28L393.051 235.675L416.458 172.595L426.328 116.83L432.476 191.654L397.959 256.21L332.106 295.419L320.295 331.034L308.484 396.81L332.646 366.2L385.662 298.756L450.976 273.793L397.959 313.387L310.425 426.329L295.54 522.907L299.369 543.699L293.167 743.144H245.112L244.194 680.03L254.713 639.109L250.02 580.34L253.256 565.966L247.593 527.527L245.544 512.19L204.447 388.211L146.468 339.826L131.363 324.03L121.601 317.292L36.9335 326.79L23.4915 321.786L1 262.554L23.4089 299.606L36.7683 310.499L94.9609 299.572L71.8673 269.787L32.9595 252.174L2.25069 223.932L91.0249 266.478L187.188 336.874L230.334 391.163L256.384 457.388L256.491 453.73L243.87 399.954L235.888 374.735L178.557 275.269L167.447 247.996L104.561 244.467L61.4143 200.445L73.7651 141.792L76.2458 185.814L105.801 225.408L160.49 230.927L139.078 178.434L91.0238 134.477L35.5265 113.942L88.543 116.83L131.959 150.52L134.17 143.268L121.82 96.2946L137.838 56.7009V88.9791L145.119 160.723L145.281 160.851L226.45 305.815L231.574 265.002L203.205 177.022L216.742 127.354L192.095 62.6046L223.538 102.455L235.242 59.6527L273.481 1Z" fill="black" stroke="#CD2404" stroke-opacity="0.18"/>
</svg>
