<svg width="511" height="468" viewBox="0 0 511 468" fill="none" xmlns="http://www.w3.org/2000/svg">
<path d="M97.9792 224.304L114.973 155.332C114.973 155.332 194.191 64.7312 197.442 59.2241C200.693 53.7168 260.848 -5.69526 260.848 -5.69526L359.105 13.6001L402.267 2.26242L470.616 -33.91L576.341 -137.42C590.05 -118.551 603.759 -99.6825 617.468 -80.8137L447.945 29.7602L318.467 158.44L340.531 246.234L392.855 275.784L436.88 281.572L567.215 251.347L492.992 286.42L447.067 302.035L396.13 304.091L324.018 262.154L287.491 155.763L388.599 41.6406L366.969 37.1971L305.505 48.3457L241.043 139.214L212.447 177.261L144.117 237.914C144.117 237.914 220.689 146.12 227.19 135.105C233.692 124.091 284.229 46.4649 284.229 46.4649L312.419 25.9835L270.271 17.319L208.664 74.6701L130.409 156.708L114.065 189.018L97.9792 224.304Z" fill="black"/>
<path d="M229.109 135.298L234.283 202.309L208.146 251.179L248.702 199.696L252.484 102.589L229.109 135.298Z" fill="black"/>
<path d="M210.784 52.68L127.131 77.2863L105.79 135.253L59.9003 154.44L97.1251 125.822L122.774 66.2982L249.325 18.3876L210.784 52.68Z" fill="black"/>
<path d="M350.357 25.1889L329.968 -52.7837L247.353 -66.6756L217.477 -22.9521L245.629 -89.0127L355.944 -66.9388L369.264 28.752L350.357 25.1889Z" fill="black"/>
<path d="M397.422 70.8028L358.589 141.425L409 208.334L460.76 197.148L394.887 225.734L329.997 133.831L386.15 55.2119L397.422 70.8028Z" fill="black"/>
<path d="M437.132 34.2388L384.433 95.2165L419.792 171.163L472.748 171.01L402.363 185.239L358.052 81.8311L429.357 16.641L437.132 34.2388Z" fill="black"/>
</svg>
