<svg width="443" height="1002" viewBox="0 0 443 1002" fill="none" xmlns="http://www.w3.org/2000/svg">
<path d="M115.027 0L93.4291 91.7011L132.672 174.996L159.112 111.466L218.449 78.2251L261.644 57.5619H305.729L257.135 72.7705L196.852 101.584L159.112 135.787L153.713 175.317L133.896 245.456L133.841 247.895L181.6 181.605L215.778 168.129H262.535L214.887 182.504L181.6 205.862L132.951 281.328L132.116 312.836L128.664 358.975L159.112 323.617L221.177 289.414L283.242 277.734L341.744 314.633L276.952 286.782L213.996 304.686L205.09 311.36L262.535 327.211L278.733 359.553L282.351 409.863L264.372 346.077L244.556 335.296L188.057 324.194L181.6 329.007L135.678 372.131L123.989 446.762L119.981 475.896L117.532 693.181L118.311 716.026L123.098 744.775L130.279 851.813L122.875 851.107L123.098 857.203H86.1933L86.3608 853.16L85.3034 859L70.0516 853.61L89.3668 684.453L87.262 644.388L77.9678 623.307L42.6772 540.156L16.5232 505.811L-9.10171 474.09L-39.6881 471.612L-59.0831 480.941L-74.7845 519.853L-68.4945 474.163L-26.2432 456.029L1.25189 462.612L36.2637 501.115L-9.15759 416.794L-77.512 343.125V272.087L-57.7515 221.777L-64.9321 274.782V324.194L-23.7968 375.853L-26.246 314.376L-14.5567 290.954L22.3481 272.087L-5.53926 297.242L-15.4473 323.296L-9.881 393.307L-1.92114 403.318L80.1823 548.795L78.4011 414.74L38.5461 292.173L70.0516 343.382L71.5545 341.007L63.706 292.173C63.706 292.173 40.3274 213.053 40.3274 206.761C40.3274 200.468 -35.2081 148.3 -35.2081 148.3L-100 149.199L-28.9179 129.498L22.3481 155.488L42.9992 179.616C30.2873 156.974 15.8498 132.905 12.4398 129.498C6.53609 123.599 -29.4241 98.7 -37.6014 95.6156C-31.7689 96.4888 -9.15759 98.8883 -9.15759 98.8883L21.4575 116.856L45.7267 144.707L68.2147 191.488L98.8294 248.985L106.4 287.809L123.989 195.017L76.3413 99.7867L115.027 0ZM-37.6014 95.6156C-38.8919 95.4225 -39.6416 95.2947 -38.827 95.2947C-38.546 95.2947 -38.1466 95.4099 -37.6014 95.6156ZM60.0868 211.573L65.1521 227.039C64.4534 223.995 63.851 221.404 63.7049 220.237C63.5571 219.061 62.1902 215.883 60.0868 211.573ZM116.752 299.553L112.856 321.05L114.303 328.622L116.752 299.553Z" fill="black"/>
<path d="M-37.6014 95.6156C-29.4241 98.7 6.53609 123.599 12.4398 129.498C15.8498 132.905 30.2873 156.974 42.9992 179.616L22.3481 155.488L-28.9179 129.498L-100 149.199L-35.2081 148.3C-35.2081 148.3 40.3274 200.468 40.3274 206.761C40.3274 213.053 63.706 292.173 63.706 292.173L71.5545 341.007L70.0516 343.382L38.5461 292.173L78.4011 414.74L80.1823 548.795L-1.92114 403.318L-9.881 393.307L-15.4473 323.296L-5.53926 297.242L22.3481 272.087L-14.5567 290.954L-26.246 314.376L-23.7968 375.853L-64.9321 324.194V274.782L-57.7515 221.777L-77.512 272.087V343.125L-9.15759 416.794L36.2637 501.115L1.25189 462.612L-26.2432 456.029L-68.4945 474.163L-74.7845 519.853L-59.0831 480.941L-39.6881 471.612L-9.10171 474.09L16.5232 505.811L42.6772 540.156L77.9678 623.307L87.262 644.388L89.3668 684.453L70.0516 853.61L85.3034 859L86.3608 853.16L86.1933 857.203H123.098L122.875 851.107L130.279 851.813L123.098 744.775L118.311 716.026L117.532 693.181L119.981 475.896L123.989 446.762L135.678 372.131L181.6 329.007L188.057 324.194L244.556 335.296L264.372 346.077L282.351 409.863L278.733 359.553L262.535 327.211L205.09 311.36L213.996 304.686L276.952 286.782L341.744 314.633L283.242 277.734L221.177 289.414L159.112 323.617L128.664 358.975L132.116 312.836L132.951 281.328L181.6 205.862L214.887 182.504L262.535 168.129H215.778L181.6 181.605L133.841 247.895L133.896 245.456L153.713 175.317L159.112 135.787L196.852 101.584L257.135 72.7705L305.729 57.5619H261.644L218.449 78.2251L159.112 111.466L132.672 174.996L93.4291 91.7011L115.027 0L76.3413 99.7867L123.989 195.017L106.4 287.809L98.8294 248.985L68.2147 191.488L45.7267 144.707L21.4575 116.856L-9.15759 98.8883C-9.15759 98.8883 -31.7689 96.4888 -37.6014 95.6156ZM-37.6014 95.6156C-38.8919 95.4225 -39.6416 95.2947 -38.827 95.2947C-38.546 95.2947 -38.1466 95.4099 -37.6014 95.6156ZM60.0868 211.573L65.1521 227.039C64.4534 223.995 63.851 221.404 63.7049 220.237C63.5571 219.061 62.1902 215.883 60.0868 211.573ZM116.752 299.553L112.856 321.05L114.303 328.622L116.752 299.553Z" stroke="#2D0000" stroke-opacity="0.43" stroke-width="2" stroke-linejoin="round"/>
<path d="M226.717 142L248.315 233.701L209.072 316.996L182.632 253.466L123.295 220.225L80.1 199.562H36.0147L84.6088 214.771L144.892 243.584L182.632 277.787L188.031 317.317L207.847 387.456L207.903 389.895L160.144 323.605L125.966 310.129H79.209L126.857 324.504L160.144 347.862L208.793 423.328L209.628 454.836L213.079 500.975L182.632 465.617L120.567 431.414L58.5022 419.734L1.81117e-05 456.633L64.7922 428.782L127.747 446.686L136.654 453.36L79.209 469.211L63.011 501.553L59.3928 551.863L77.3719 488.077L97.1881 477.296L153.687 466.194L160.144 471.007L206.066 514.131L217.755 588.762L221.763 617.896L224.212 835.181L223.433 858.026L218.646 886.775L211.465 993.813L218.868 993.107L218.646 999.203H255.551L255.383 995.16L256.441 1001L271.692 995.61L252.377 826.453L254.482 786.388L263.776 765.307L299.067 682.156L325.221 647.811L350.846 616.09L381.432 613.612L400.827 622.941L416.528 661.853L410.238 616.163L367.987 598.029L340.492 604.612L305.48 643.115L350.901 558.794L419.256 485.125V414.087L399.495 363.777L406.676 416.782V466.194L365.541 517.853L367.99 456.376L356.301 432.954L319.396 414.087L347.283 439.242L357.191 465.296L351.625 535.307L343.665 545.318L261.562 690.795L263.343 556.74L303.198 434.173L271.692 485.382L270.189 483.007L278.038 434.173C278.038 434.173 301.417 355.053 301.417 348.761C301.417 342.468 376.952 290.3 376.952 290.3L441.744 291.199L370.662 271.498L319.396 297.488L298.745 321.616C311.457 298.974 325.894 274.905 329.304 271.498C335.208 265.599 371.168 240.7 379.345 237.616C373.513 238.489 350.901 240.888 350.901 240.888L320.286 258.856L296.017 286.707L273.529 333.488L242.915 390.985L235.344 429.809L217.755 337.017L265.403 241.787L226.717 142ZM379.345 237.616C380.636 237.423 381.385 237.295 380.571 237.295C380.29 237.295 379.89 237.41 379.345 237.616ZM281.657 353.573L276.592 369.039C277.291 365.995 277.893 363.404 278.039 362.237C278.187 361.061 279.554 357.883 281.657 353.573ZM224.992 441.553L228.888 463.05L227.441 470.622L224.992 441.553Z" fill="black"/>
<path d="M379.345 237.616C371.168 240.7 335.208 265.599 329.304 271.498C325.894 274.905 311.457 298.974 298.745 321.616L319.396 297.488L370.662 271.498L441.744 291.199L376.952 290.3C376.952 290.3 301.417 342.468 301.417 348.761C301.417 355.053 278.038 434.173 278.038 434.173L270.189 483.007L271.692 485.382L303.198 434.173L263.343 556.74L261.562 690.795L343.665 545.318L351.625 535.307L357.191 465.296L347.283 439.242L319.396 414.087L356.301 432.954L367.99 456.376L365.541 517.853L406.676 466.194V416.782L399.495 363.777L419.256 414.087V485.125L350.901 558.794L305.48 643.115L340.492 604.612L367.987 598.029L410.238 616.163L416.528 661.853L400.827 622.941L381.432 613.612L350.846 616.09L325.221 647.811L299.067 682.156L263.776 765.307L254.482 786.388L252.377 826.453L271.692 995.61L256.441 1001L255.383 995.16L255.551 999.203H218.646L218.868 993.107L211.465 993.813L218.646 886.775L223.433 858.026L224.212 835.181L221.763 617.896L217.755 588.762L206.066 514.131L160.144 471.007L153.687 466.194L97.1881 477.296L77.3719 488.077L59.3928 551.863L63.011 501.553L79.209 469.211L136.654 453.36L127.747 446.686L64.7922 428.782L1.81117e-05 456.633L58.5022 419.734L120.567 431.414L182.632 465.617L213.079 500.975L209.628 454.836L208.793 423.328L160.144 347.862L126.857 324.504L79.209 310.129H125.966L160.144 323.605L207.903 389.895L207.847 387.456L188.031 317.317L182.632 277.787L144.892 243.584L84.6088 214.771L36.0147 199.562H80.1L123.295 220.225L182.632 253.466L209.072 316.996L248.315 233.701L226.717 142L265.403 241.787L217.755 337.017L235.344 429.809L242.915 390.985L273.529 333.488L296.017 286.707L320.286 258.856L350.901 240.888C350.901 240.888 373.513 238.489 379.345 237.616ZM379.345 237.616C380.636 237.423 381.385 237.295 380.571 237.295C380.29 237.295 379.89 237.41 379.345 237.616ZM281.657 353.573L276.592 369.039C277.291 365.995 277.893 363.404 278.039 362.237C278.187 361.061 279.554 357.883 281.657 353.573ZM224.992 441.553L228.888 463.05L227.441 470.622L224.992 441.553Z" stroke="#2D0000" stroke-opacity="0.43" stroke-width="2" stroke-linejoin="round"/>
</svg>
